#N canvas 945 89 925 991 12;
#X obj 389 922 wsprobe~;
#X obj 331 532 sig~;
#X obj 337 567 vd~ delayline;
#X obj 475 673 *~;
#X obj 275 324 inlet~;
#X obj 276 911 outlet~;
#X obj 299 635 +~;
#X obj 94 73 hsl 128 15 1 1000 0 0 delay delay delay -2 -8 0 10 -262144
-1 -1 7700 1;
#X obj 93 125 hsl 128 15 0 1 0 0 feedback feedback feedback -2 -8 0
10 -262144 -1 -1 6100 1;
#X floatatom 243 71 5 0 0 0 - delay -;
#X floatatom 244 124 5 0 0 0 - feedback -;
#X obj 483 742 s~ feedbackloop;
#X obj 195 158 bng 15 250 50 0 reset empty RESET 19 8 0 10 -262144
-1 -1;
#X obj 606 134 receive reset;
#X msg 573 188 0;
#X msg 655 186 0;
#X obj 557 285 send delay;
#X floatatom 566 229 5 0 0 0 - - -;
#X floatatom 658 232 5 0 0 0 - - -;
#X obj 660 288 send feedback;
#X obj 723 583 sigmund~;
#X floatatom 399 495 5 0 0 0 - - -;
#X obj 534 375 LFO~ 14.17 0.354;
#X obj 615 610 *~ 20;
#X connect 1 0 2 0;
#X connect 2 0 6 1;
#X connect 3 0 11 0;
#X connect 4 0 6 0;
#X connect 6 0 3 0;
#X connect 6 0 5 0;
#X connect 13 0 14 0;
#X connect 13 0 15 0;
#X connect 14 0 17 0;
#X connect 15 0 18 0;
#X connect 17 0 16 0;
#X connect 18 0 19 0;
#X connect 20 0 21 0;
#X connect 21 0 1 0;
#X connect 22 2 20 0;
#X connect 22 2 23 0;
#X connect 23 0 3 1;
#X coords 0 -1 1 1 215 145 1 80 40;
