#N canvas 70 89 925 991 12;
#X obj 148 489 wsprobe~;
#X floatatom 98 286 5 0 0 0 - delay -;
#X obj 98 317 sig~;
#X obj 98 351 vd~ delayline;
#X floatatom 238 292 5 0 0 0 - feedback -;
#X obj 236 347 sig~;
#X obj 218 404 *~;
#X obj 82 206 inlet~;
#X obj 81 490 outlet~;
#X obj 81 383 +~;
#X obj 94 73 hsl 128 15 0 1000 0 0 delay delay delay -2 -8 0 10 -262144
-1 -1 0 1;
#X obj 93 125 hsl 128 15 0 1 0 0 feedback feedback feedback -2 -8 0
10 -262144 -1 -1 0 1;
#X floatatom 243 71 5 0 0 0 - delay -;
#X floatatom 244 124 5 0 0 0 - feedback -;
#X obj 217 488 s~ feedbackloop;
#X obj 195 158 bng 15 250 50 0 delay_reset empty RESET 19 8 0 10 -262144
-1 -1;
#X msg 384 193 0;
#X msg 466 191 0;
#X obj 368 290 send delay;
#X floatatom 377 234 5 0 0 0 - - -;
#X floatatom 469 237 5 0 0 0 - - -;
#X obj 471 293 send feedback;
#X obj 417 139 receive delay_reset;
#X obj 123 256 delwrite~ delayline 1000;
#X obj 425 400 loadbang;
#X msg 431 441 clear;
#X obj 428 483 delwrite~ delayline;
#X connect 1 0 2 0;
#X connect 2 0 3 0;
#X connect 3 0 9 1;
#X connect 4 0 5 0;
#X connect 5 0 6 1;
#X connect 6 0 14 0;
#X connect 7 0 9 0;
#X connect 7 0 23 0;
#X connect 9 0 0 0;
#X connect 9 0 6 0;
#X connect 9 0 8 0;
#X connect 16 0 19 0;
#X connect 17 0 20 0;
#X connect 19 0 18 0;
#X connect 20 0 21 0;
#X connect 22 0 16 0;
#X connect 22 0 17 0;
#X connect 22 0 25 0;
#X connect 24 0 25 0;
#X connect 25 0 26 0;
#X coords 0 -1 1 1 215 145 1 80 40;
