#N canvas 895 89 925 991 12;
#X obj 380 746 wsprobe~;
#X floatatom 329 498 5 0 0 0 - - -;
#X obj 299 635 -~;
#X obj 331 532 sig~;
#X obj 349 469 hsl 128 15 1 1000 0 0 empty empty delay -2 -8 0 10 -262144
-1 -1 6400 1;
#X obj 337 567 vd~ delayline;
#X obj 328 373 delwrite~ delayline 1000;
#X obj 377 321 r~ feedback;
#X floatatom 553 500 5 0 0 0 - - -;
#X obj 555 534 sig~;
#X obj 569 470 hsl 128 15 1 1000 0 0 empty empty feedback -2 -8 0 10
-262144 -1 -1 0 1;
#X obj 475 673 *~;
#X obj 483 742 s~ feedback;
#X obj 275 324 inlet~;
#X obj 262 745 outlet~;
#X connect 1 0 3 0;
#X connect 2 0 0 0;
#X connect 2 0 11 0;
#X connect 2 0 14 0;
#X connect 3 0 5 0;
#X connect 4 0 1 0;
#X connect 5 0 2 1;
#X connect 7 0 6 0;
#X connect 8 0 9 0;
#X connect 9 0 11 1;
#X connect 10 0 8 0;
#X connect 11 0 12 0;
#X connect 13 0 2 0;
#X connect 13 0 6 0;
