#N canvas 70 89 925 991 12;
#X obj 18 265 FrequencyShifter~;
#X obj 17 97 loadbang;
#X obj 17 139 bng 15 250 50 0 empty empty empty 17 7 0 10 -262144 -1
-1;
#X msg 17 189 open speech.wav;
#X obj 17 223 readsf~;
#X obj 168 154 delay 500;
#X msg 172 203 start;
#X obj 17 377 output~;
#X text 15 15 FrequencyShifter - shifts the frequencies of the incoming
signal by the frequency set using the slider.. Likely to cause distortion
\, especially at higher frequencies.;
#X connect 0 0 7 0;
#X connect 0 0 7 1;
#X connect 1 0 2 0;
#X connect 2 0 5 0;
#X connect 2 0 3 0;
#X connect 3 0 4 0;
#X connect 4 0 0 0;
#X connect 4 1 2 0;
#X connect 5 0 6 0;
#X connect 6 0 4 0;
