#N canvas 945 89 925 991 12;
#X obj 264 138 loadbang;
#X obj 268 194 bng 15 250 50 0 empty empty empty 17 7 0 10 -262144
-1 -1;
#X msg 272 252 open speech.wav;
#X obj 275 324 readsf~;
#X obj 117 211 delay 500;
#X msg 121 260 start;
#X obj 262 745 output~;
#X obj 406 749 wsprobe~;
#X floatatom 342 398 5 0 0 0 - - -;
#X msg 354 323 0;
#X obj 288 545 hilbert~;
#X obj 294 591 *~;
#X obj 374 589 *~;
#X obj 299 635 -~;
#X obj 367 542 cos~;
#X obj 415 543 cos~;
#X obj 344 432 sig~;
#X obj 350 467 phasor~;
#X obj 415 509 +~ -0.25;
#X obj 358 368 hsl 128 15 -1000 1000 0 0 empty empty Frequency_Shift
-2 -8 0 10 -262144 -1 -1 6350 1;
#X connect 0 0 1 0;
#X connect 0 0 9 0;
#X connect 1 0 4 0;
#X connect 1 0 2 0;
#X connect 1 0 3 0;
#X connect 2 0 3 0;
#X connect 3 0 10 0;
#X connect 3 1 1 0;
#X connect 4 0 5 0;
#X connect 5 0 3 0;
#X connect 8 0 16 0;
#X connect 9 0 19 0;
#X connect 10 0 11 0;
#X connect 10 1 12 0;
#X connect 11 0 13 0;
#X connect 12 0 13 1;
#X connect 13 0 6 0;
#X connect 13 0 6 1;
#X connect 13 0 7 0;
#X connect 14 0 11 1;
#X connect 15 0 12 1;
#X connect 16 0 17 0;
#X connect 17 0 18 0;
#X connect 17 0 14 0;
#X connect 18 0 15 0;
#X connect 19 0 8 0;
