#N canvas 885 89 925 991 12;
#X obj 72 301 wsprobe~;
#X floatatom 66 11 5 0 0 0 - frequencyshift -;
#X obj 11 118 hilbert~;
#X obj 12 196 *~;
#X obj 63 195 *~;
#X obj 13 244 -~;
#X obj 90 159 cos~;
#X obj 138 160 cos~;
#X obj 66 49 sig~;
#X obj 66 82 phasor~;
#X obj 138 126 +~ -0.25;
#X obj 14 302 outlet~;
#X obj 10 11 inlet~;
#X floatatom 569 196 10 0 0 0 - frequencyshift -;
#X obj 572 169 hsl 128 15 -1000 1000 0 0 frequencyshift frequencyshift
Frequency_Shift -2 -8 0 10 -262144 -1 -1 6200 1;
#X obj 650 198 bng 15 250 50 0 frequency_shifter_reset empty RESET
19 8 0 10 -262144 -1 -1;
#X msg 230 207 0;
#X obj 230 299 send frequencyshift;
#X floatatom 230 252 5 0 0 0 - - -;
#X obj 230 159 receive frequency_shifter_reset;
#X obj 215 130 loadbang;
#X connect 1 0 8 0;
#X connect 2 0 3 0;
#X connect 2 1 4 0;
#X connect 3 0 5 0;
#X connect 4 0 5 1;
#X connect 5 0 0 0;
#X connect 5 0 11 0;
#X connect 6 0 3 1;
#X connect 7 0 4 1;
#X connect 8 0 9 0;
#X connect 9 0 10 0;
#X connect 9 0 6 0;
#X connect 10 0 7 0;
#X connect 12 0 2 0;
#X connect 16 0 18 0;
#X connect 18 0 17 0;
#X connect 19 0 16 0;
#X connect 20 0 16 0;
#X coords 0 -1 1 1 150 90 1 560 135;
