#N canvas 70 89 925 991 12;
#X floatatom 122 62 5 0 0 0 - - -;
#X obj 97 111 *~;
#X obj 243 112 *~;
#X floatatom 222 18 5 0 0 0 - - -;
#X floatatom 281 64 5 0 0 0 - gate -;
#X obj 160 166 +~;
#X obj 162 213 outlet~;
#X obj 103 20 loadbang;
#X obj 298 14 -;
#X obj 171 53 abs;
#X obj 428 73 hsl 128 15 0 1000 0 0 gate_speed gate_speed Speed -2
-8 0 10 -262144 -1 -1 10300 1;
#X obj 497 94 bng 15 250 50 0 mixer_reset mixer_reset RESET 19 8 0
10 -262144 -1 -1;
#X floatatom 352 321 5 0 0 0 - - -;
#X obj 284 242 loadbang;
#X msg 181 18 1;
#X obj 29 60 inlet~;
#X obj 286 287 f \$1;
#X obj 224 308 inlet;
#X obj 426 94 tgl 15 0 gate_toggle gate_toggle empty 17 7 0 10 -262144
-1 -1 1 1;
#X obj 530 176 metro;
#X floatatom 449 91 5 0 0 0 - gate_speed -;
#X obj 529 216 float;
#X obj 625 221 + 1;
#X obj 528 283 mod 2;
#X floatatom 617 287 5 0 0 0 - - -;
#X floatatom 528 328 5 0 0 0 - - -;
#X obj 352 242 receive gate_reset;
#X msg 352 282 0;
#X obj 529 365 send gate;
#X obj 352 362 send gate_speed;
#X obj 38 198 *~;
#X obj 139 299 == 0;
#X floatatom 184 258 5 0 0 0 - gate_toggle -;
#X floatatom 55 142 5 0 0 0 - - -;
#X obj 351 53 loadbang;
#X obj 348 83 bang;
#X obj 228 183 *~;
#X obj 329 146 send gate_toggle;
#X connect 0 0 1 1;
#X connect 1 0 5 0;
#X connect 2 0 5 1;
#X connect 3 0 8 1;
#X connect 4 0 2 1;
#X connect 4 0 8 0;
#X connect 5 0 36 0;
#X connect 7 0 14 0;
#X connect 8 0 9 0;
#X connect 9 0 0 0;
#X connect 12 0 29 0;
#X connect 13 0 27 0;
#X connect 13 0 16 0;
#X connect 14 0 3 0;
#X connect 15 0 1 0;
#X connect 15 0 30 0;
#X connect 16 0 29 0;
#X connect 17 0 29 0;
#X connect 18 0 19 0;
#X connect 19 0 21 0;
#X connect 20 0 19 1;
#X connect 21 0 22 0;
#X connect 21 0 23 0;
#X connect 21 0 24 0;
#X connect 22 0 21 1;
#X connect 23 0 25 0;
#X connect 25 0 28 0;
#X connect 26 0 27 0;
#X connect 27 0 12 0;
#X connect 30 0 6 0;
#X connect 31 0 33 0;
#X connect 32 0 31 0;
#X connect 32 0 36 1;
#X connect 33 0 30 1;
#X connect 34 0 35 0;
#X connect 35 0 37 0;
#X connect 36 0 6 0;
#X coords 0 -1 1 1 145 80 1 420 40;
