#N canvas 70 89 1850 991 12;
#X floatatom 465 327 5 0 0 0 - depth -;
#X obj 435 511 *~;
#X obj 469 370 *~ 0.01;
#X obj 421 595 outlet~;
#X obj 515 699 vradio 15 1 0 2 wavetype empty wave_type 0 -8 0 10 -262144
-1 -1 0;
#X obj 445 710 bng 15 250 50 0 reset empty RESET 17 7 0 10 -262144
-1 -1;
#X obj 447 747 hsl 128 15 0 50 0 0 speed speed SPEED -2 -8 0 10 -262144
-1 -1 3400 1;
#X obj 448 788 hsl 128 15 0 1 0 0 depth depth DEPTH -2 -8 0 10 -262144
-1 -1 0 1;
#X floatatom 588 746 5 0 0 0 - speed -;
#X floatatom 588 786 5 0 0 0 - depth -;
#X text 532 696 sine;
#X text 532 712 square;
#X obj 673 256 receive reset;
#X obj 647 500 send speed;
#X obj 742 500 send depth;
#X obj 259 550 inlet;
#X obj 167 623 send speed;
#X obj 265 622 send depth;
#X obj 167 540 inlet;
#X obj 169 583 clip 0 50;
#X obj 262 586 clip 0 1;
#X obj 827 380 inlet;
#X obj 169 780 outlet;
#X obj 259 782 outlet;
#X floatatom 168 729 5 0 0 0 - speed -;
#X floatatom 260 731 5 0 0 0 - depth -;
#X obj 184 237 receive wavetype;
#X floatatom 188 284 5 0 0 0 - - -;
#X obj 273 168 osc~;
#X floatatom 271 78 5 0 0 0 - speed -;
#X obj 273 123 sig~;
#X obj 190 320 == 1;
#X obj 99 244 *~ 9001;
#X obj 101 296 clip~ -1 1;
#X obj 146 353 *~;
#X obj 343 346 *~;
#X obj 294 321 != 1;
#N canvas 830 187 450 250 (subpatch) 0;
#X array amplitude 100 float 2;
#X coords 0 -0.01 100 0.01 200 140 1 0 0;
#X restore 1112 338 graph;
#X obj 518 595 tabwrite~ amplitude;
#X obj 534 550 metro 100;
#X obj 559 499 tgl 15 0 empty empty empty 17 7 0 10 -262144 -1 -1 0
1;
#X msg 652 381 50;
#X msg 734 379 0.5;
#X floatatom 649 443 5 0 0 0 - - -;
#X floatatom 741 441 5 0 0 0 - - -;
#X obj 671 302 loadbang;
#X connect 0 0 2 0;
#X connect 1 0 3 0;
#X connect 1 0 38 0;
#X connect 2 0 1 1;
#X connect 12 0 45 0;
#X connect 15 0 20 0;
#X connect 18 0 19 0;
#X connect 19 0 16 0;
#X connect 20 0 17 0;
#X connect 21 0 44 0;
#X connect 21 0 43 0;
#X connect 24 0 22 0;
#X connect 25 0 23 0;
#X connect 26 0 27 0;
#X connect 27 0 31 0;
#X connect 27 0 36 0;
#X connect 28 0 32 0;
#X connect 28 0 35 0;
#X connect 29 0 30 0;
#X connect 30 0 28 0;
#X connect 31 0 34 1;
#X connect 32 0 33 0;
#X connect 33 0 34 0;
#X connect 34 0 1 0;
#X connect 35 0 1 0;
#X connect 36 0 35 1;
#X connect 39 0 38 0;
#X connect 40 0 39 0;
#X connect 41 0 43 0;
#X connect 42 0 44 0;
#X connect 43 0 13 0;
#X connect 44 0 14 0;
#X connect 45 0 41 0;
#X connect 45 0 42 0;
#X coords 0 -1 1 1 200 150 1 435 670;
