#N canvas 385 121 1387 727 12;
#X floatatom 465 327 5 0 0 0 - depth -;
#X obj 435 511 *~;
#X obj 469 370 *~ 0.01;
#X obj 421 595 outlet~;
#X obj 515 699 vradio 15 1 0 2 wavetype empty wave_type 0 -8 0 10 -262144
-1 -1 0;
#X obj 444 710 bng 15 250 50 0 R empty RESET 17 7 0 10 -262144 -1 -1
;
#X obj 448 749 hsl 128 15 0 50 0 0 speed speed SPEED -2 -8 0 10 -262144
-1 -1 5080 1;
#X obj 448 788 hsl 128 15 0 1 0 0 depth depth DEPTH -2 -8 0 10 -262144
-1 -1 12700 1;
#X floatatom 588 746 5 0 0 0 - speed -;
#X floatatom 588 786 5 0 0 0 - depth -;
#X text 532 696 sine;
#X text 532 712 square;
#X obj 259 550 inlet;
#X obj 167 623 send speed;
#X obj 265 622 send depth;
#X obj 167 540 inlet;
#X obj 169 583 clip 0 50;
#X obj 262 586 clip 0 1;
#X obj 169 780 outlet;
#X obj 259 782 outlet;
#X floatatom 168 729 5 0 0 0 - speed -;
#X floatatom 260 731 5 0 0 0 - depth -;
#X obj 184 237 receive wavetype;
#X floatatom 188 284 5 0 0 0 - - -;
#X obj 273 168 osc~;
#X floatatom 271 78 5 0 0 0 - speed -;
#X obj 273 123 sig~;
#X obj 190 320 == 1;
#X obj 99 244 *~ 9001;
#X obj 101 296 clip~ -1 1;
#X obj 146 353 *~;
#X obj 343 346 *~;
#X obj 294 321 != 1;
#N canvas 0 50 450 250 (subpatch) 0;
#X array amplitude 100 float 2;
#X coords 0 -0.01 100 0.01 200 140 1 0 0;
#X restore 1112 338 graph;
#X obj 518 595 tabwrite~ amplitude;
#X obj 534 550 metro 100;
#X obj 559 499 tgl 15 0 empty empty empty 17 7 0 10 -262144 -1 -1 1
1;
#X obj 716 301 send speed;
#X obj 833 206 f \$2;
#X obj 833 298 send depth;
#X obj 716 204 f \$1;
#X obj 751 154 loadbang;
#X obj 562 157 receive R;
#X floatatom 833 246 5 0 0 0 - - -;
#X floatatom 716 247 5 0 0 0 - - -;
#X connect 0 0 2 0;
#X connect 1 0 3 0;
#X connect 1 0 34 0;
#X connect 2 0 1 1;
#X connect 12 0 17 0;
#X connect 15 0 16 0;
#X connect 16 0 13 0;
#X connect 17 0 14 0;
#X connect 20 0 18 0;
#X connect 21 0 19 0;
#X connect 22 0 23 0;
#X connect 23 0 27 0;
#X connect 23 0 32 0;
#X connect 24 0 28 0;
#X connect 24 0 31 0;
#X connect 25 0 26 0;
#X connect 26 0 24 0;
#X connect 27 0 30 1;
#X connect 28 0 29 0;
#X connect 29 0 30 0;
#X connect 30 0 1 0;
#X connect 31 0 1 0;
#X connect 32 0 31 1;
#X connect 35 0 34 0;
#X connect 36 0 35 0;
#X connect 38 0 43 0;
#X connect 40 0 44 0;
#X connect 41 0 38 0;
#X connect 41 0 40 0;
#X connect 42 0 44 0;
#X connect 42 0 43 0;
#X connect 43 0 39 0;
#X connect 44 0 37 0;
#X coords 0 -1 1 1 200 150 1 435 670;
