#N canvas 855 89 925 991 12;
#X floatatom 122 62 5 0 0 0 - - -;
#X obj 97 111 *~;
#X obj 243 112 *~;
#X floatatom 222 18 5 0 0 0 - - -;
#X floatatom 283 63 5 0 0 0 - mixer -;
#X obj 160 166 +~;
#X obj 162 213 outlet~;
#X obj 103 20 loadbang;
#X obj 298 14 -;
#X obj 171 53 abs;
#X obj 428 73 hsl 128 15 0 1 0 0 mixer mixer Mix -2 -8 0 10 -262144
-1 -1 0 1;
#X obj 497 94 bng 15 250 50 0 mixer_reset mixer_reset RESET 19 8 0
10 -262144 -1 -1;
#X floatatom 352 321 5 0 0 0 - - -;
#X obj 352 362 send mixer;
#X obj 284 242 loadbang;
#X msg 181 18 1;
#X msg 352 282 0.5;
#X obj 29 60 inlet~;
#X obj 209 62 inlet~;
#X obj 352 242 receive mixer_reset;
#X obj 286 287 f \$1;
#X obj 224 308 inlet;
#X obj 247 341 clip 0 1;
#X connect 0 0 1 1;
#X connect 1 0 5 0;
#X connect 2 0 5 1;
#X connect 3 0 8 1;
#X connect 4 0 2 1;
#X connect 4 0 8 0;
#X connect 5 0 6 0;
#X connect 7 0 15 0;
#X connect 8 0 9 0;
#X connect 9 0 0 0;
#X connect 12 0 13 0;
#X connect 14 0 16 0;
#X connect 14 0 20 0;
#X connect 15 0 3 0;
#X connect 16 0 12 0;
#X connect 17 0 1 0;
#X connect 18 0 2 0;
#X connect 19 0 16 0;
#X connect 20 0 13 0;
#X connect 21 0 22 0;
#X connect 22 0 13 0;
#X coords 0 -1 1 1 145 80 1 420 40;
