#N canvas 70 89 925 991 12;
#X obj 380 746 wsprobe~;
#X obj 275 324 inlet~;
#X obj 262 745 outlet~;
#X obj 94 73 hsl 128 15 0 50 0 0 tremolo_speed tremolo_speed speed
-2 -8 0 10 -262144 -1 -1 0 1;
#X obj 93 125 hsl 128 15 0 1 0 0 tremolo_depth tremolo_depth depth
-2 -8 0 10 -262144 -1 -1 0 1;
#X floatatom 243 71 5 0 0 0 - tremolo_speed -;
#X floatatom 244 124 5 0 0 0 - tremolo_depth -;
#X obj 195 158 bng 15 250 50 0 reset empty RESET 19 8 0 10 -262144
-1 -1;
#X obj 606 134 receive reset;
#X msg 573 188 0;
#X msg 655 186 0;
#X floatatom 566 229 5 0 0 0 - - -;
#X floatatom 658 232 5 0 0 0 - - -;
#X obj 340 324 LFO~ 10 1;
#X obj 331 508 sig~;
#X obj 329 547 +~;
#X obj 299 635 *~;
#X obj 326 590 *~ 0.5;
#X floatatom 357 263 5 0 0 0 - tremolo_speed -;
#X floatatom 436 267 5 0 0 0 - tremolo_depth -;
#X obj 557 285 send tremolo_speed;
#X obj 694 285 send tremolo_depth;
#X connect 1 0 16 0;
#X connect 8 0 9 0;
#X connect 8 0 10 0;
#X connect 9 0 11 0;
#X connect 10 0 12 0;
#X connect 11 0 20 0;
#X connect 12 0 21 0;
#X connect 13 1 14 0;
#X connect 13 2 15 1;
#X connect 14 0 15 0;
#X connect 15 0 17 0;
#X connect 16 0 0 0;
#X connect 16 0 2 0;
#X connect 17 0 16 1;
#X connect 18 0 13 0;
#X connect 19 0 13 1;
#X coords 0 -1 1 1 215 145 1 80 40;
