#N canvas 70 89 925 991 12;
#X obj 380 746 wsprobe~;
#X obj 275 324 inlet~;
#X obj 262 745 outlet~;
#X obj 94 73 hsl 128 15 1 1000 0 0 delay delay delay -2 -8 0 10 -262144
-1 -1 0 1;
#X obj 93 125 hsl 128 15 0 1 0 0 feedback feedback feedback -2 -8 0
10 -262144 -1 -1 0 1;
#X floatatom 243 71 5 0 0 0 - delay -;
#X floatatom 244 124 5 0 0 0 - feedback -;
#X obj 195 158 bng 15 250 50 0 reset empty RESET 19 8 0 10 -262144
-1 -1;
#X obj 606 134 receive reset;
#X msg 573 188 0;
#X msg 655 186 0;
#X obj 557 285 send delay;
#X floatatom 566 229 5 0 0 0 - - -;
#X floatatom 658 232 5 0 0 0 - - -;
#X obj 660 288 send feedback;
#X obj 299 635 *~;
#X obj 336 325 LFO~ 10 1;
#X floatatom 481 565 5 0 0 0 - - -;
#X msg 526 514 70;
#X obj 337 567 *~;
#X floatatom 601 557 5 0 0 0 - - -;
#X floatatom 678 560 5 0 0 0 - - -;
#X obj 618 492 sigmund~ pitch env;
#X connect 1 0 15 0;
#X connect 8 0 9 0;
#X connect 8 0 10 0;
#X connect 9 0 12 0;
#X connect 10 0 13 0;
#X connect 12 0 11 0;
#X connect 13 0 14 0;
#X connect 15 0 0 0;
#X connect 15 0 2 0;
#X connect 16 2 19 0;
#X connect 17 0 19 1;
#X connect 18 0 17 0;
#X connect 19 0 22 0;
#X connect 22 0 20 0;
#X connect 22 1 21 0;
#X coords 0 -1 1 1 215 145 1 80 40;
