#N canvas 935 89 925 991 12;
#X obj 318 693 wsprobe~;
#X obj 256 544 hilbert~;
#X obj 257 589 *~;
#X obj 335 591 *~;
#X obj 257 633 -~;
#X obj 328 544 cos~;
#X obj 371 543 cos~;
#X obj 371 508 +~ -0.25;
#X obj 258 694 outlet~;
#X obj 255 234 inlet~;
#X floatatom 719 166 10 0 0 0 - vibrato_speed -;
#X obj 572 169 hsl 128 15 0 50 0 0 vibrato_speed vibrato_speed Speed
-2 -8 0 10 -262144 -1 -1 4300 1;
#X obj 721 224 bng 15 250 50 0 vibrato_reset empty RESET 19 8 0 10
-262144 -1 -1;
#X msg 556 388 0;
#X floatatom 560 460 5 0 0 0 - - -;
#X obj 250 54 LFO~;
#X obj 371 401 *~;
#X floatatom 403 365 5 0 0 0 - - -;
#X floatatom 258 19 5 0 0 0 - vibrato_speed -;
#X floatatom 347 14 5 0 1 0 - vibrato_depth -;
#X msg 642 388 0;
#X floatatom 646 460 5 0 0 0 - - -;
#X floatatom 719 198 10 0 0 0 - vibrato_depth -;
#X obj 572 201 hsl 128 15 0 1 0 0 vibrato_depth vibrato_depth Depth
-2 -8 0 10 -262144 -1 -1 12700 1;
#X msg 415 323 70;
#X obj 557 339 receive vibrato_reset;
#X obj 444 280 loadbang;
#X obj 555 524 send vibrato_speed;
#X obj 649 549 send vibrato_depth;
#X connect 1 0 2 0;
#X connect 1 1 3 0;
#X connect 2 0 4 0;
#X connect 3 0 4 1;
#X connect 4 0 0 0;
#X connect 4 0 8 0;
#X connect 5 0 2 1;
#X connect 6 0 3 1;
#X connect 7 0 6 0;
#X connect 9 0 1 0;
#X connect 13 0 14 0;
#X connect 14 0 27 0;
#X connect 15 2 16 0;
#X connect 16 0 5 0;
#X connect 16 0 7 0;
#X connect 17 0 16 1;
#X connect 18 0 15 0;
#X connect 19 0 15 1;
#X connect 20 0 21 0;
#X connect 21 0 28 0;
#X connect 24 0 17 0;
#X connect 25 0 13 0;
#X connect 25 0 20 0;
#X connect 26 0 24 0;
#X coords 0 -1 1 1 250 130 1 560 125;
