#N canvas 932 130 925 991 12;
#X obj 11 86 loadbang;
#X obj 11 122 bng 15 250 50 0 empty empty empty 17 7 0 10 -262144 -1
-1;
#X msg 22 174 open speech.wav;
#X obj 12 244 readsf~;
#X obj 151 137 delay 500;
#X msg 151 176 start;
#X obj 16 509 output~;
#X obj 11 300 Vibrato~;
#X text 9 15 Vibrato - oscillates the pitch of the signal sent via
the inlet \, and outputs it via the outlet. Can be used to make wavy
\, underwater-sounding effects.;
#X connect 0 0 1 0;
#X connect 1 0 4 0;
#X connect 1 0 2 0;
#X connect 1 0 3 0;
#X connect 2 0 3 0;
#X connect 3 0 7 0;
#X connect 3 1 1 0;
#X connect 4 0 5 0;
#X connect 5 0 3 0;
#X connect 7 0 6 0;
#X connect 7 0 6 1;
