#N canvas 785 89 925 991 12;
#X obj 406 749 wsprobe~;
#X obj 288 545 hilbert~;
#X obj 294 591 *~;
#X obj 374 589 *~;
#X obj 299 635 -~;
#X obj 367 542 cos~;
#X obj 415 543 cos~;
#X obj 415 509 +~ -0.25;
#X obj 266 764 outlet~;
#X obj 255 234 inlet~;
#X floatatom 719 166 10 0 0 0 - speed -;
#X obj 572 169 hsl 128 15 0 50 0 0 speed speed Speed -2 -8 0 10 -262144
-1 -1 10000 1;
#X obj 721 224 bng 15 250 50 0 reset empty RESET 19 8 0 10 -262144
-1 -1;
#X obj 557 339 receive reset;
#X msg 556 388 0;
#X floatatom 560 460 5 0 0 0 - - -;
#X obj 250 54 LFO~;
#X obj 271 855 sigmund~;
#X floatatom 376 862 5 0 0 0 - - -;
#X obj 459 856 sig~;
#X obj 433 923 output~;
#X obj 451 810 + 5000;
#X obj 371 401 *~;
#X floatatom 403 365 5 0 0 0 - - -;
#X floatatom 258 19 5 0 0 0 - - -;
#X floatatom 347 14 5 0 1 0 - - -;
#X obj 555 524 send speed;
#X msg 642 388 0;
#X floatatom 646 460 5 0 0 0 - - -;
#X obj 641 524 send depth;
#X floatatom 719 198 10 0 0 0 - depth -;
#X obj 572 201 hsl 128 15 0 1 0 0 depth depth Depth -2 -8 0 10 -262144
-1 -1 9500 1;
#X msg 415 323 70;
#X connect 1 0 2 0;
#X connect 1 1 3 0;
#X connect 2 0 4 0;
#X connect 3 0 4 1;
#X connect 4 0 0 0;
#X connect 4 0 8 0;
#X connect 5 0 2 1;
#X connect 6 0 3 1;
#X connect 7 0 6 0;
#X connect 9 0 1 0;
#X connect 13 0 14 0;
#X connect 13 0 27 0;
#X connect 14 0 15 0;
#X connect 15 0 26 0;
#X connect 16 2 22 0;
#X connect 17 1 18 0;
#X connect 18 0 21 0;
#X connect 19 0 20 0;
#X connect 19 0 20 1;
#X connect 21 0 19 0;
#X connect 22 0 5 0;
#X connect 22 0 7 0;
#X connect 23 0 22 1;
#X connect 24 0 16 0;
#X connect 25 0 16 1;
#X connect 27 0 28 0;
#X connect 28 0 29 0;
#X connect 32 0 23 0;
#X coords 0 -1 1 1 250 130 1 560 125;
