#N canvas 70 89 1850 991 12;
#X obj 25 203 adc~;
#X obj 20 692 FrequencyShifter~;
#X obj 21 965 outlet~;
#X obj 22 545 Vibrato~;
#X obj 20 798 GraphicEqualiser~;
#X obj 28 8 loadbang;
#X obj 352 99 bng 15 250 50 0 empty empty empty 17 7 0 10 -262144 -1
-1;
#X msg 418 136 open speech.wav;
#X obj 421 208 readsf~;
#X obj 253 142 delay 500;
#X msg 257 191 start;
#X obj 821 237 route voice recording;
#X obj 822 109 loadbang;
#X obj 834 172 message \$1;
#X obj 646 488 route voice recording;
#X obj 638 444 message \$1;
#X obj 622 244 f 0;
#X obj 759 283 f 1;
#X obj 163 273 Mixer~;
#X obj 362 256 receive source;
#X obj 603 283 send source;
#X obj 760 321 send source;
#X obj 21 387 Delay~;
#X obj 371 404 delwrite~ delayline 1000;
#X obj 883 581 bng 15 250 50 0 empty empty empty 17 7 0 10 -262144
-1 -1;
#X obj 810 658 send delay_reset;
#X obj 987 658 send vibrato_reset;
#X obj 1150 658 send frequency_shifter_reset;
#X obj 702 661 send lfo_reset;
#X connect 0 0 18 0;
#X connect 1 0 4 0;
#X connect 3 0 1 0;
#X connect 4 0 2 0;
#X connect 5 0 6 0;
#X connect 5 0 0 0;
#X connect 6 0 9 0;
#X connect 6 0 7 0;
#X connect 6 0 8 0;
#X connect 7 0 8 0;
#X connect 8 0 18 1;
#X connect 8 1 6 0;
#X connect 9 0 10 0;
#X connect 10 0 8 0;
#X connect 11 0 16 0;
#X connect 11 1 17 0;
#X connect 12 0 13 0;
#X connect 13 0 11 0;
#X connect 15 0 14 0;
#X connect 16 0 20 0;
#X connect 17 0 21 0;
#X connect 18 0 22 0;
#X connect 18 0 23 0;
#X connect 19 0 18 2;
#X connect 22 0 3 0;
#X connect 24 0 28 0;
#X connect 24 0 25 0;
#X connect 24 0 26 0;
#X connect 24 0 27 0;
