#N canvas 70 89 925 991 12;
#X obj 166 130 adc~;
#X obj 34 603 FrequencyShifter~;
#X obj 35 876 outlet~;
#X obj 36 456 Vibrato~;
#X obj 35 298 Delay~;
#X obj 34 709 GraphicEqualiser~;
#X msg 671 203 open speech.wav;
#X obj 681 269 readsf~;
#X obj 539 167 delay 500;
#X msg 527 205 start;
#X obj 659 392 delwrite~ delayline 1000;
#X obj 671 76 loadbang;
#X obj 662 124 spigot;
#X msg 782 76 \$1;
#X connect 0 0 4 0;
#X connect 1 0 5 0;
#X connect 3 0 1 0;
#X connect 4 0 3 0;
#X connect 5 0 2 0;
#X connect 6 0 7 0;
#X connect 7 0 10 0;
#X connect 7 0 4 0;
#X connect 7 1 12 0;
#X connect 8 0 9 0;
#X connect 9 0 7 0;
#X connect 11 0 12 0;
#X connect 12 0 8 0;
#X connect 12 0 6 0;
