#N canvas 362 89 925 991 12;
#X obj 43 460 output~;
#X obj 452 91 FrequencyShifter~;
#X obj 41 91 Vibrato~;
#X obj 40 327 GraphicEqualiser~;
#X obj 306 125 hsl 128 15 0 127 0 0 delay delay delay -2 -8 0 10 -262144
-1 -1 0 1;
#X obj 306 179 hsl 128 15 0 127 0 0 feedback feedback feedback -2 -8
0 10 -262144 -1 -1 0 1;
#X text 300 89 Delay~;
#X floatatom 303 143 5 0 0 0 - delay -;
#X floatatom 303 197 5 0 0 0 - feedback -;
#X obj 355 202 bng 15 250 50 0 delay_reset empty RESET 19 8 0 10 -262144
-1 -1;
#X obj 623 91 Gate~;
#X text 40 20 VoiceChanger~ by Simon Fish Use the sliders on the objects
below to adjust the settings \, and click the RESET_ALL bang to reset
them back to default values.;
#X obj 40 256 VoiceChanger~ voice;
#X text 214 245 Options: [recording] - use any wav file from the current
directory as the input | [voice] - use an [adc~] object as the input
\, taking from the system mic (cancel the file dialogue);
#X connect 3 0 0 0;
#X connect 3 0 0 1;
#X connect 12 0 3 0;
